<svg width="656" height="674" viewBox="0 0 656 674" fill="none" xmlns="http://www.w3.org/2000/svg">
<g clip-path="url(#clip0_378:1434)">
<path d="M537.23 185.718C537.23 185.718 524.933 192.812 528.717 202.743C528.717 202.743 541.486 206.527 546.688 215.986C551.891 225.444 592.09 259.495 592.09 259.495L621.412 244.834C621.412 244.834 611.211 231.218 578.95 221.71C578.95 221.71 559.93 201.325 553.309 197.541C546.688 193.758 537.23 185.718 537.23 185.718Z" fill="#CBCDDA"/>
<path opacity="0.05" d="M537.23 185.718C537.23 185.718 524.933 192.812 528.717 202.743C528.717 202.743 541.486 206.527 546.688 215.986C551.891 225.444 592.09 259.495 592.09 259.495L621.412 244.834C621.412 244.834 611.211 231.218 578.95 221.71C578.95 221.71 559.93 201.325 553.309 197.541C546.688 193.758 537.23 185.718 537.23 185.718Z" fill="black"/>
<path opacity="0.1" d="M112.107 638.438C105.793 639.998 99.1885 638.177 92.6855 638.1C86.1825 638.023 78.5956 640.756 77.0017 647.061C74.861 655.53 84.7609 661.914 93.2374 664.024C126.137 672.212 160.963 661.585 194.588 665.919C208.757 667.746 222.537 672.216 236.784 673.282C269.393 675.722 301.255 660.213 333.909 661.961C350.268 662.837 366.169 668.032 382.531 668.866C421.678 670.86 460.299 647.879 498.622 656.113C509.443 658.439 519.603 663.179 530.325 665.925C557.433 672.866 585.971 666.679 613.261 660.489C618.679 659.26 625.212 656.868 625.88 651.352C626.616 645.265 619.627 641.448 613.813 639.504C550.23 618.239 482.156 606.974 415.836 616.802C400.744 619.039 385.695 622.363 370.439 622.143C336.673 621.657 305.646 604.043 272.497 597.601C209.686 585.393 146.885 613.874 89.2234 641.613" fill="#9C9A40"/>
<path d="M199.163 457.99H179.934V620.56C179.934 620.56 304.046 660.765 424.662 620.56V457.99H199.163Z" fill="#3F3D56"/>
<path d="M300.55 477.219C367.164 477.219 421.166 469.002 421.166 458.865C421.166 448.728 367.164 440.51 300.55 440.51C233.936 440.51 179.934 448.728 179.934 458.865C179.934 469.002 233.936 477.219 300.55 477.219Z" fill="#3F3D56"/>
<path opacity="0.1" d="M300.55 477.219C367.164 477.219 421.166 469.002 421.166 458.865C421.166 448.728 367.164 440.51 300.55 440.51C233.936 440.51 179.934 448.728 179.934 458.865C179.934 469.002 233.936 477.219 300.55 477.219Z" fill="black"/>
<path d="M440.758 263.757C410.331 376.235 306.11 445.896 306.11 445.896C306.11 445.896 251.222 333.193 281.649 220.715C312.077 108.237 416.297 38.5769 416.297 38.5769C416.297 38.5769 471.186 151.279 440.758 263.757Z" fill="#3F3D56"/>
<path d="M163.954 263.757C194.381 376.235 298.602 445.896 298.602 445.896C298.602 445.896 353.49 333.193 323.062 220.715C292.635 108.237 188.414 38.5769 188.414 38.5769C188.414 38.5769 133.526 151.279 163.954 263.757Z" fill="#9C9A40"/>
<path d="M208.664 239.585C292.158 320.862 302.356 445.804 302.356 445.804C302.356 445.804 177.185 438.97 93.6914 357.692C10.1981 276.415 0 151.473 0 151.473C0 151.473 125.171 158.307 208.664 239.585Z" fill="#3F3D56"/>
<path d="M396.047 239.585C312.554 320.862 302.356 445.804 302.356 445.804C302.356 445.804 427.527 438.97 511.02 357.692C594.514 276.415 604.712 151.473 604.712 151.473C604.712 151.473 479.541 158.307 396.047 239.585Z" fill="#3F3D56"/>
<path d="M302.298 76.9144C323.537 76.9144 340.755 59.6966 340.755 38.4572C340.755 17.2179 323.537 0 302.298 0C281.059 0 263.841 17.2179 263.841 38.4572C263.841 59.6966 281.059 76.9144 302.298 76.9144Z" fill="#9C9A40"/>
<path d="M72.0061 310.804C74.7329 320.698 84.2067 326.718 84.2067 326.718C84.2067 326.718 89.2593 316.695 86.5325 306.8C83.8057 296.906 74.332 290.886 74.332 290.886C74.332 290.886 69.2792 300.909 72.0061 310.804Z" fill="#9C9A40"/>
<path d="M123.046 365.909C120.11 375.744 124.95 385.871 124.95 385.871C124.95 385.871 134.549 380.053 137.484 370.218C140.419 360.383 135.579 350.256 135.579 350.256C135.579 350.256 125.981 356.074 123.046 365.909Z" fill="#9C9A40"/>
<path d="M491.189 429.175C483.985 436.486 483.512 447.7 483.512 447.7C483.512 447.7 494.718 447.062 501.922 439.752C509.126 432.441 509.599 421.227 509.599 421.227C509.599 421.227 498.393 421.865 491.189 429.175Z" fill="#9C9A40"/>
<path d="M613.845 589.13C613.845 589.13 615.264 609.939 617.628 612.304C619.993 614.669 596.346 616.088 596.346 616.088L599.657 589.13H613.845Z" fill="#FFB9B9"/>
<path opacity="0.05" d="M613.845 589.13C613.845 589.13 615.264 609.939 617.628 612.304C619.993 614.669 596.346 616.088 596.346 616.088L599.657 589.13H613.845Z" fill="black"/>
<path d="M619.047 605.21C619.047 605.21 615.736 605.21 603.913 611.358C603.913 611.358 595.873 609.939 592.563 598.589C592.563 598.589 582.631 615.615 576.01 616.56C569.389 617.506 556.62 618.452 565.132 629.803C573.645 641.153 623.776 635.951 623.776 635.951C623.776 635.951 625.195 608.521 619.047 605.21Z" fill="#CBCDDA"/>
<path opacity="0.05" d="M619.047 605.21C619.047 605.21 615.736 605.21 603.913 611.358C603.913 611.358 595.873 609.939 592.563 598.589C592.563 598.589 582.631 615.615 576.01 616.56C569.389 617.506 556.62 618.452 565.132 629.803C573.645 641.153 623.776 635.951 623.776 635.951C623.776 635.951 625.195 608.521 619.047 605.21Z" fill="black"/>
<path d="M611.953 621.29L608.643 630.276L586.888 624.128L588.127 615.208L588.425 613.056L589.252 607.102C589.252 607.102 607.697 602.373 607.697 604.737C607.945 606.687 608.35 608.613 608.908 610.498C609.664 613.406 610.615 616.721 611.253 618.902C611.669 620.344 611.953 621.29 611.953 621.29Z" fill="#FFB9B9"/>
<path d="M600.083 497.949C598.593 500.469 596.904 505.199 600.04 511.11C600.969 512.82 602.111 514.404 603.44 515.825C613.845 527.176 616.682 552.714 616.682 552.714V593.86L609.588 594.403L598.238 595.278L581.212 525.284C581.212 525.284 571.281 474.207 576.01 465.222C580.74 456.236 584.996 399.957 584.996 399.957L588.921 395.889L598.238 386.242H625.195C627.352 387.789 629.142 389.791 630.44 392.106C634.966 399.597 639.029 415.176 626.614 443.94C607.224 488.868 601.549 495.962 601.549 495.962C600.986 496.567 600.494 497.233 600.083 497.949Z" fill="#4C4C78"/>
<path opacity="0.05" d="M600.083 497.949C598.593 500.469 596.904 505.199 600.04 511.11C600.969 512.82 602.111 514.404 603.44 515.825C613.845 527.176 616.682 552.714 616.682 552.714V593.86L609.588 594.403L598.238 595.278L581.212 525.284C581.212 525.284 571.281 474.207 576.01 465.222C580.74 456.236 584.996 399.957 584.996 399.957L588.921 395.889L598.238 386.242H625.195C627.352 387.789 629.142 389.791 630.44 392.106C634.966 399.597 639.029 415.176 626.614 443.94C607.224 488.868 601.549 495.962 601.549 495.962C600.986 496.567 600.494 497.233 600.083 497.949Z" fill="black"/>
<path opacity="0.1" d="M608.908 610.498L588.425 613.056L589.252 607.102C589.252 607.102 607.697 602.373 607.697 604.737C607.946 606.687 608.35 608.613 608.908 610.498Z" fill="black"/>
<path d="M598.711 437.319C598.711 437.319 599.889 474.548 600.083 497.949C600.125 503.241 600.121 507.828 600.04 511.111C600.067 512.848 599.939 514.584 599.657 516.299C598.238 520.555 601.076 530.014 601.076 530.014C612.899 561.227 609.589 588.658 609.589 588.658V609.467L586.888 612.304C586.888 612.304 590.671 609.467 580.267 582.036C574.289 566.278 572.993 550.837 572.974 540.546C572.919 534.913 571.792 529.342 569.654 524.13C568.999 522.373 568.592 520.533 568.443 518.663C567.498 509.205 563.241 497.381 563.241 497.381C563.241 497.381 551.891 463.803 549.053 439.21C547.742 427.505 547.963 415.678 549.711 404.029C550.129 401.068 550.699 398.13 551.418 395.228C551.418 395.228 597.652 366.133 615.108 386.242C616.787 388.209 618.12 390.448 619.047 392.863C620.007 395.249 620.754 397.714 621.28 400.231C626.714 426.919 598.711 437.319 598.711 437.319Z" fill="#4C4C78"/>
<path d="M597.292 230.174C610.613 230.174 621.412 219.375 621.412 206.054C621.412 192.733 610.613 181.934 597.292 181.934C583.971 181.934 573.172 192.733 573.172 206.054C573.172 219.375 583.971 230.174 597.292 230.174Z" fill="#FFB9B9"/>
<path d="M584.05 221.188C584.05 221.188 593.982 249.091 584.05 263.752C574.119 278.413 615.737 273.684 615.737 273.684L631.817 254.293C631.817 254.293 612.899 254.293 611.953 221.188C611.007 188.082 584.05 221.188 584.05 221.188Z" fill="#FFB9B9"/>
<path opacity="0.1" d="M631.817 397.592C628.388 398.778 624.862 399.661 621.28 400.231C615.392 401.139 608.444 401.172 604.386 397.592C601.979 395.469 596.049 395.209 588.921 395.89C573.911 397.327 553.593 402.927 549.71 404.029C550.129 401.068 550.699 398.13 551.418 395.228C551.418 395.228 597.652 366.133 615.108 386.242H625.195C627.352 387.789 629.142 389.791 630.44 392.106C631.31 395.871 631.817 397.592 631.817 397.592Z" fill="black"/>
<path opacity="0.1" d="M611.953 621.29L608.643 630.276L586.888 624.128L588.127 615.208C591.863 623.475 598.238 624.6 598.238 624.6C605.115 621.025 609.111 619.531 611.253 618.902C611.669 620.344 611.953 621.29 611.953 621.29Z" fill="black"/>
<path d="M613.372 618.925C613.372 618.925 610.062 618.925 598.238 625.073C598.238 625.073 590.198 623.655 586.888 612.304C586.888 612.304 576.956 629.33 570.335 630.276C563.714 631.222 550.945 632.167 559.458 643.518C567.97 654.868 618.101 649.666 618.101 649.666C618.101 649.666 619.52 622.236 613.372 618.925Z" fill="#CBCDDA"/>
<path d="M501.17 210.673C501.17 210.673 502.093 192.254 521.451 194.056C521.993 194.108 522.514 194.292 522.968 194.593C523.421 194.894 523.794 195.302 524.052 195.781C524.31 196.26 524.446 196.795 524.448 197.34C524.45 197.884 524.318 198.42 524.063 198.901L520.094 206.372L501.17 210.673Z" fill="#FFB9B9"/>
<path d="M612.899 259.968C612.899 259.968 589.725 256.185 583.577 251.456C583.577 251.456 578.848 260.441 570.335 255.712C561.822 250.983 541.959 251.456 541.959 251.456C541.959 251.456 525.406 242.47 522.096 222.134C522.096 222.134 518.785 209.837 519.731 206.527C519.731 206.527 507.435 193.758 501.287 210.783C503.651 222.607 505.543 221.661 505.07 231.119L512.637 251.928C512.637 251.928 513.11 259.022 526.825 268.481C540.54 277.94 556.147 292.601 556.147 292.601C556.147 292.601 547.871 297.094 550.945 317.666C554.702 342.811 549.053 378.675 549.053 378.675V401.848C549.053 401.848 596.346 388.133 604.386 395.227C612.426 402.321 631.816 395.227 631.816 395.227C631.816 395.227 629.452 387.188 626.141 367.797C622.831 348.407 626.614 329.49 626.614 329.49C626.614 329.49 638.91 296.857 644.586 283.615C650.261 270.373 640.329 252.401 630.398 245.78C620.466 239.159 616.767 243.134 616.767 243.134C616.767 243.134 634.181 255.712 612.899 259.968Z" fill="#CBCDDA"/>
<path opacity="0.1" d="M571.207 200.155C571.199 201.14 571.365 202.118 571.697 203.045C572.249 204.099 573.003 205.036 573.915 205.8C577.457 209.261 580.564 213.374 581.81 218.167C582.654 221.412 582.609 224.812 582.558 228.165C582.352 241.744 581.783 256.401 573.396 267.082C570.313 271.008 566.351 274.129 562.626 277.451C562.107 277.833 561.713 278.361 561.494 278.967C561.392 279.613 561.516 280.274 561.845 280.839C563.574 284.433 567.219 286.638 570.669 288.639C572.247 289.553 573.908 290.493 575.73 290.552C580.03 290.691 582.872 286.149 586.786 284.362C592.483 281.761 598.877 285.381 604.531 288.073C608.627 290.023 612.923 291.521 617.343 292.541C623.396 293.937 630.24 294.28 635.336 290.728C638.282 288.653 640.295 285.503 640.941 281.957C641.35 279.646 641.287 276.964 643.036 275.399C643.937 274.593 645.167 274.258 646.142 273.544C647.655 272.436 648.374 270.571 649.018 268.81L654.844 252.881C655.596 251.198 655.984 249.375 655.982 247.531C655.703 243.696 652.166 240.912 648.614 239.437C645.063 237.962 641.135 237.235 638.012 234.992C632.731 231.197 631.101 224.111 630.626 217.626C630.301 213.171 630.332 208.698 630.721 204.249C631.298 197.651 632.588 190.626 629.653 184.689C626.518 178.348 619.486 175.11 612.974 172.348C610.474 171.287 607.906 170.21 605.192 170.09C602.321 169.963 599.524 170.918 596.809 171.859C592.493 173.356 588.115 175.293 583.66 176.308C581.157 176.878 578.415 176.452 576.001 177.357C567.133 180.683 571.207 193.016 571.207 200.155Z" fill="black"/>
<path d="M571.207 199.21C571.199 200.194 571.365 201.172 571.697 202.099C572.249 203.153 573.003 204.09 573.915 204.855C577.457 208.316 580.564 212.429 581.81 217.221C582.654 220.466 582.609 223.866 582.558 227.219C582.352 240.798 581.783 255.455 573.396 266.136C570.313 270.062 566.351 273.184 562.626 276.506C562.107 276.887 561.713 277.415 561.494 278.021C561.392 278.667 561.516 279.328 561.845 279.893C563.574 283.488 567.219 285.692 570.669 287.693C572.247 288.607 573.908 289.547 575.73 289.606C580.03 289.745 582.872 285.203 586.786 283.416C592.483 280.815 598.877 284.435 604.531 287.127C608.627 289.077 612.923 290.575 617.343 291.595C623.396 292.992 630.24 293.335 635.336 289.782C638.282 287.707 640.295 284.557 640.941 281.012C641.35 278.701 641.287 276.018 643.036 274.453C643.937 273.647 645.167 273.313 646.142 272.598C647.655 271.49 648.374 269.625 649.018 267.864L654.844 251.935C655.596 250.252 655.984 248.429 655.982 246.586C655.703 242.75 652.166 239.966 648.614 238.491C645.063 237.017 641.135 236.29 638.012 234.046C632.731 230.251 631.101 223.165 630.626 216.68C630.301 212.226 630.332 207.753 630.721 203.304C631.298 196.706 632.588 189.68 629.653 183.743C626.518 177.402 619.486 174.164 612.974 171.402C610.474 170.341 607.906 169.264 605.192 169.144C602.321 169.018 599.524 169.972 596.809 170.914C592.493 172.41 588.115 174.347 583.66 175.362C581.157 175.933 578.415 175.506 576.001 176.411C567.133 179.737 571.207 192.07 571.207 199.21Z" fill="#B96B6B"/>
<path opacity="0.05" d="M552.138 328.276C552.138 328.276 555.911 327.361 574.828 324.524C593.745 321.686 626.851 328.307 626.851 328.307" fill="black"/>
<path d="M32.3235 406.042C35.0503 415.937 44.524 421.956 44.524 421.956C44.524 421.956 49.5767 411.933 46.8499 402.039C44.1231 392.144 34.6493 386.125 34.6493 386.125C34.6493 386.125 29.5966 396.147 32.3235 406.042Z" fill="#9C9A40"/>
</g>
<defs>
<clipPath id="clip0_378:1434">
<rect width="656" height="673.543" fill="white"/>
</clipPath>
</defs>
</svg>
